<?xml version="1.0" encoding="UTF-8"?><svg id="Layer_2" xmlns="http://www.w3.org/2000/svg" xmlns:xlink="http://www.w3.org/1999/xlink" viewBox="0 0 365.83 71.89"><defs><style>.cls-1{fill:url(#linear-gradient);}.cls-1,.cls-2,.cls-3,.cls-4,.cls-5,.cls-6,.cls-7,.cls-8,.cls-9,.cls-10,.cls-11{stroke-width:0px;}.cls-2{fill:url(#linear-gradient-4);}.cls-3{fill:url(#linear-gradient-2);}.cls-4{fill:url(#linear-gradient-3);}.cls-5{fill:url(#linear-gradient-8);}.cls-6{fill:url(#linear-gradient-9);}.cls-7{fill:url(#linear-gradient-7);}.cls-8{fill:url(#linear-gradient-5);}.cls-9{fill:url(#linear-gradient-6);}.cls-10{fill:#606060;}.cls-11{fill:#ef5d35;}</style><linearGradient id="linear-gradient" x1="98.64" y1="-9.45" x2="337.51" y2="48.99" gradientUnits="userSpaceOnUse"><stop offset="0" stop-color="#644d9f"/><stop offset="1" stop-color="#c46983"/></linearGradient><linearGradient id="linear-gradient-2" x1="86.15" y1="41.58" x2="325.02" y2="100.02" xlink:href="#linear-gradient"/><linearGradient id="linear-gradient-3" x1="104.85" y1="-34.85" x2="343.72" y2="23.6" xlink:href="#linear-gradient"/><linearGradient id="linear-gradient-4" x1="88.45" y1="32.18" x2="327.32" y2="90.63" xlink:href="#linear-gradient"/><linearGradient id="linear-gradient-5" x1="101.54" y1="-21.32" x2="340.41" y2="37.13" xlink:href="#linear-gradient"/><linearGradient id="linear-gradient-6" x1="94.95" y1="5.63" x2="333.82" y2="64.07" xlink:href="#linear-gradient"/><linearGradient id="linear-gradient-7" x1="102.71" y1="-26.09" x2="341.58" y2="32.36" xlink:href="#linear-gradient"/><linearGradient id="linear-gradient-8" x1="97.09" y1="-3.11" x2="335.96" y2="55.34" xlink:href="#linear-gradient"/><linearGradient id="linear-gradient-9" x1="91.27" y1="20.64" x2="330.15" y2="79.09" xlink:href="#linear-gradient"/></defs><g id="Layer_1-2"><path class="cls-1" d="m260.23,37.09l-3.94-9.46-3.65-8.77-6.4-15.46h0l-.71-1.69c-.28-.69-.96-1.15-1.71-1.14h-6.09c-.75,0-1.42.45-1.7,1.14l-.71,1.69h0l-6.4,15.45-3.63,8.77-3.96,9.47-2.56,6.22c-.39.95.06,2.03,1.01,2.42.22.09.46.14.7.15h6.92c.75,0,1.43-.46,1.72-1.16l2.59-6.29h0l.56-1.36h17l.55,1.36h0l2.59,6.29c.29.7.97,1.15,1.72,1.16h6.92c1.02-.02,1.84-.85,1.85-1.87,0-.24-.05-.48-.15-.7l-2.52-6.22Zm-24.37-8.78l.3-.7,3.65-8.78.95-2.25h0l.95,2.28,3.66,8.77.28.72-9.78-.04Z" marker-end="none" marker-start="none"/><path class="cls-3" d="m0,2.41C0,1.38.83.55,1.85.55h15.01c2.24,0,4.48.21,6.68.64,1.95.39,3.81,1.13,5.48,2.21,1.58,1.09,2.86,2.55,3.72,4.25.97,2.1,1.43,4.4,1.34,6.71.08,2.29-.36,4.57-1.29,6.67-.78,1.71-2.01,3.19-3.56,4.28-1.6,1.12-3.42,1.89-5.34,2.28-2.19.47-4.42.7-6.65.68h-7.29v15.84c0,.5-.19.98-.54,1.33-.35.35-.82.54-1.31.54H1.85c-.49,0-.97-.19-1.31-.54C.19,45.09,0,44.61,0,44.11H0V2.41Zm10,17.38h6.67c.87.02,1.74-.07,2.59-.25.79-.16,1.56-.44,2.25-.86.66-.41,1.22-.98,1.6-1.66.43-.82.63-1.74.59-2.66.06-1-.23-1.99-.8-2.81-.54-.7-1.24-1.26-2.05-1.63-.89-.4-1.83-.65-2.8-.74-1.02-.09-2-.15-2.96-.15h-5.1v10.76Z" marker-end="none" marker-start="none"/><path class="cls-4" d="m330.8,2.41c0-.49.2-.97.55-1.32.35-.35.83-.54,1.32-.54h15.71c2.21,0,4.41.23,6.58.67,1.94.4,3.79,1.17,5.45,2.25,1.58,1.07,2.86,2.54,3.72,4.24.98,2.08,1.45,4.35,1.38,6.65.09,2.92-.79,5.8-2.5,8.18-1.79,2.3-4.4,3.83-7.29,4.25l9.86,16.38c.52.88.24,2.02-.64,2.55-.29.16-.63.25-.96.25h-7.59c-.69.01-1.33-.38-1.64-1l-8.97-17.16h-4.88v16.3c0,.51-.2,1-.56,1.35-.36.35-.86.54-1.36.52h-6.3c-.49,0-.97-.19-1.32-.53-.35-.35-.55-.83-.55-1.32h0V2.41Zm10.09,16.89h5.84c.95.02,1.91-.02,2.86-.1.94-.04,1.87-.24,2.74-.58.79-.3,1.49-.81,2.02-1.48.6-.87.88-1.91.8-2.96.06-.97-.19-1.94-.71-2.76-.43-.66-1.03-1.2-1.72-1.57-.79-.39-1.64-.64-2.51-.76-.91-.12-1.83-.18-2.76-.17h-6.57v10.38Z" marker-end="none" marker-start="none"/><path class="cls-2" d="m40.48,2.41c0-1.01.81-1.84,1.82-1.86h15.76c2.2,0,4.4.23,6.56.67,1.94.4,3.79,1.17,5.46,2.25,1.57,1.08,2.85,2.54,3.72,4.24.98,2.08,1.45,4.35,1.38,6.65.06,2.93-.83,5.8-2.55,8.18-1.8,2.31-4.42,3.84-7.32,4.25l9.92,16.38c.35.57.36,1.28.03,1.87-.33.58-.95.94-1.62.94h-7.6c-.69.02-1.33-.37-1.64-.99l-8.89-17.17h-5.02v16.31c0,.49-.18.96-.52,1.31-.34.35-.81.54-1.3.54h-6.33c-.49,0-.96-.19-1.3-.53-.35-.35-.54-.82-.54-1.31h0V2.41Zm9.99,16.89h5.93c.93.05,1.86.05,2.79,0,.93-.04,1.84-.24,2.71-.58.8-.29,1.5-.8,2.02-1.48.61-.86.9-1.91.81-2.96.05-.97-.2-1.93-.71-2.76-.44-.66-1.05-1.2-1.76-1.55-.79-.39-1.64-.64-2.51-.76-.9-.12-1.8-.18-2.71-.18h-6.56v10.27Z" marker-end="none" marker-start="none"/><path class="cls-8" d="m295.09.57c.49,0,.97.2,1.32.55s.54.83.54,1.32c0,.24-.05.47-.13.69l-16.3,39.32-.96,2.33c-.29.69-.97,1.15-1.72,1.16h-5.54c-.75-.01-1.42-.46-1.7-1.16l-.99-2.33L253.45,3.13c-.19-.45-.19-.97,0-1.42.19-.46.55-.82,1.01-1.01.22-.09.46-.13.7-.13h6.85c.76,0,1.44.46,1.72,1.16l11.46,27.55,11.38-27.55c.28-.7.95-1.16,1.7-1.16h6.83Z" marker-end="none" marker-start="none"/><path class="cls-9" d="m190.11.57c.49,0,.97.2,1.31.55.35.35.54.83.53,1.32,0,.24-.04.47-.13.69l-16.23,39.32-.98,2.33c-.28.7-.95,1.15-1.7,1.16h-5.56c-.75-.02-1.41-.47-1.7-1.16l-.99-2.33-6.3-15.2-6.27,15.2-.9,2.33c-.28.7-.95,1.15-1.7,1.16h-5.63c-.75-.01-1.43-.47-1.72-1.16l-.96-2.33L124.85,3.13c-.19-.45-.18-.97.01-1.42.2-.46.57-.81,1.03-.99.22-.1.47-.16.71-.15h6.92c.75,0,1.43.46,1.7,1.16l11.38,27.55,6.28-15.22-4.45-10.93c-.19-.44-.2-.95-.01-1.41.18-.45.54-.81.99-1,.22-.1.47-.15.71-.15h6.92c.76,0,1.43.46,1.72,1.16l5.16,12.34,6.22,15.21,11.34-27.55c.28-.7.96-1.16,1.72-1.16h6.89Z" marker-end="none" marker-start="none"/><path class="cls-7" d="m312.52,9.42l-3.9,9.47h13c.51-.02,1.01.17,1.38.53.36.36.56.85.55,1.37h0v5.16c.02,1.02-.77,1.87-1.79,1.92h-16.79l-3.94,9.47h20.6c1.03,0,1.86.83,1.87,1.86h0v5.15c0,.49-.2.96-.54,1.31-.35.34-.82.53-1.31.53h-32.61c-.49,0-.96-.18-1.31-.52-.35-.35-.55-.81-.55-1.3,0-.25.05-.5.15-.73l2.59-6.3,3.93-9.47,3.66-8.77,3.91-9.48,3.19-7.7c.28-.69.96-1.14,1.7-1.14h15.33c1.03,0,1.86.83,1.87,1.85h0v4.94c0,1.02-.84,1.85-1.87,1.85h-9.16.06Z" marker-end="none" marker-start="none"/><path class="cls-5" d="m207.4,9.42l-3.91,9.47h15.4c.5,0,.98.2,1.32.56.35.35.53.84.52,1.34,0,.24-.05.47-.13.69l-2.12,5.13c-.29.69-.97,1.15-1.72,1.14h-16.93l-3.93,9.5h15.4c1.02,0,1.85.82,1.87,1.84,0,.25-.06.5-.15.73l-2.12,5.13c-.29.69-.97,1.14-1.72,1.14h-25.2c-.49,0-.97-.2-1.32-.55-.35-.35-.54-.83-.54-1.32,0-.24.04-.47.13-.68l2.61-6.29,3.93-9.5,3.66-8.77,3.91-9.47,3.17-7.7c.28-.72.99-1.2,1.76-1.18h25.2c.62,0,1.19.31,1.54.83.34.51.41,1.16.18,1.73l-2.21,5.15c-.27.7-.95,1.15-1.71,1.14l-16.91-.06Z" marker-end="none" marker-start="none"/><path class="cls-6" d="m122.62,15.41v.08c-3.82-11.07-15.37-17.5-26.81-14.92-11.43,2.59-19.09,13.37-17.76,25.02,1.32,11.64,11.19,20.43,22.92,20.39h34.37l-12.72-30.57Zm-21.65,26.5c-10.45,0-18.93-8.44-18.94-18.88-.02-10.45,8.44-18.93,18.88-18.95,10.44,0,18.93,8.44,18.94,18.88h0c.01,5.02-1.97,9.84-5.51,13.39-3.54,3.55-8.35,5.55-13.37,5.56Z" marker-end="none" marker-start="none"/><path class="cls-11" d="m112.36,23.01c0,6.32-5.14,11.44-11.46,11.43-6.32-.01-11.44-5.14-11.43-11.46,0-6.32,5.14-11.44,11.46-11.43h0c6.32,0,11.44,5.14,11.43,11.46Z" marker-end="none" marker-start="none"/><path class="cls-10" d="m8.06,56.15h2.46l3.96,13.46h-3.33l-.77-2.88h-5.22l-1.48,2.97H.37l7.69-13.55Zm.58,3.86l-2.22,4.25h3.31l-1.08-4.25Z" marker-end="none" marker-start="none"/><path class="cls-10" d="m19.02,56.15h9.06l-.39,2.73h-6.12l-.37,2.74h5.62l-.48,2.77h-5.59l-.68,5.31h-2.96l1.91-13.55Z" marker-end="none" marker-start="none"/><path class="cls-10" d="m31.41,56.15h9.04l-.43,2.73h-6.08l-.33,2.74h5.56l-.4,2.77h-5.56l-.73,5.31h-2.96l1.88-13.55Z" marker-end="none" marker-start="none"/><path class="cls-10" d="m42.03,62.94c.13-1.04.45-2.05.96-2.97.98-1.71,2.56-3,4.43-3.61.96-.33,1.96-.49,2.96-.49.97,0,1.94.16,2.85.49.8.33,1.51.84,2.09,1.48.56.63.97,1.38,1.2,2.19.24.97.29,1.98.13,2.97-.13,1.04-.46,2.04-.96,2.96-.47.85-1.09,1.61-1.84,2.24-.74.64-1.59,1.14-2.5,1.48-.95.33-1.95.5-2.97.51-1.01,0-2.01-.16-2.96-.51-.8-.32-1.52-.83-2.09-1.48-.55-.65-.95-1.41-1.16-2.24-.27-.98-.32-2.01-.15-3.02Zm3.08,0c-.1.57-.1,1.16,0,1.73.12.5.34.96.65,1.37.31.39.72.7,1.19.9.53.23,1.11.34,1.69.33.6,0,1.19-.11,1.75-.33,1.09-.41,1.98-1.22,2.49-2.27.3-.54.49-1.12.58-1.73.1-.58.1-1.16,0-1.74-.09-.54-.31-1.05-.65-1.48-.32-.39-.73-.69-1.2-.89-.54-.22-1.12-.32-1.71-.29-.61-.02-1.21.08-1.78.31-.54.2-1.05.5-1.48.89-.42.44-.77.94-1.04,1.48-.25.54-.42,1.12-.49,1.72Z" marker-end="none" marker-start="none"/><path class="cls-10" d="m60.68,56.15h5.17c.64-.01,1.28.05,1.91.18.54.12,1.04.36,1.48.68.43.32.76.76.93,1.26.21.63.25,1.3.13,1.96-.11.9-.49,1.74-1.08,2.43-.61.68-1.44,1.12-2.34,1.26l2.62,5.69h-3.47l-2.07-5.38h-1.48l-.76,5.38h-2.96l1.91-13.46Zm2.24,5.57h2.61c.26-.05.52-.13.75-.25.26-.1.49-.25.68-.46.21-.23.33-.53.34-.84.1-.27.1-.56,0-.82-.15-.21-.36-.38-.61-.47-.22-.1-.46-.18-.7-.23h-2.71l-.37,3.07Z" marker-end="none" marker-start="none"/><path class="cls-10" d="m74.11,56.15h4.45c1-.01,1.99.11,2.96.34.87.22,1.68.62,2.39,1.17.68.55,1.2,1.28,1.48,2.11.32,1.02.39,2.11.22,3.17-.24,2.01-1.32,3.83-2.96,5.01-.78.57-1.66,1.01-2.59,1.29-.96.3-1.96.45-2.96.44h-4.83l1.85-13.53Zm1.48,10.72h1.56c.65,0,1.29-.07,1.93-.21.59-.12,1.14-.36,1.63-.7.5-.33.92-.76,1.23-1.27.33-.6.55-1.25.64-1.93.1-.58.05-1.17-.13-1.73-.15-.47-.44-.89-.81-1.2-.41-.33-.88-.57-1.38-.72-.55-.15-1.12-.23-1.69-.23h-1.79l-1.17,7.99Z" marker-end="none" marker-start="none"/><path class="cls-10" d="m94.16,56.15h2.42l3.99,13.46h-3.33l-.76-2.97h-5.22l-1.48,2.97h-3.32l7.71-13.46Zm.59,3.91l-2.22,4.2h3.29l-1.07-4.2Z" marker-end="none" marker-start="none"/><path class="cls-10" d="m104.97,56.15h5.01c.58-.01,1.17.04,1.75.12.52.07,1.02.24,1.48.49.43.24.78.6,1.01,1.03.23.57.29,1.19.18,1.78-.06.71-.36,1.38-.85,1.9-.52.51-1.15.88-1.84,1.08h0c.4.06.8.18,1.16.38.33.16.61.41.82.7.23.3.39.64.47,1,.07.4.07.82,0,1.23-.08.65-.32,1.27-.71,1.79-.36.46-.81.85-1.32,1.14-.54.3-1.12.5-1.72.63-.6.12-1.21.19-1.82.19h-5.51l1.9-13.46Zm1.48,10.96h2.67c.24-.01.48-.04.71-.09.24-.05.47-.14.68-.27.2-.13.38-.3.52-.49.16-.22.26-.47.28-.74.06-.27.01-.55-.13-.77-.12-.2-.3-.36-.52-.45-.24-.1-.49-.18-.76-.2h-3.08l-.37,3.01Zm.75-5.64h2.15c.23,0,.46-.03.68-.09.22-.04.44-.12.64-.24.18-.07.35-.19.49-.34.15-.2.24-.43.27-.68.03-.23,0-.47-.09-.69-.09-.19-.24-.33-.41-.43-.2-.11-.41-.18-.62-.23-.23-.01-.46-.01-.68,0h-2.06l-.36,2.7Z" marker-end="none" marker-start="none"/><path class="cls-10" d="m118.57,56.15h2.97l-1.48,10.72h5.5l-.39,2.74h-8.49l1.9-13.46Z" marker-end="none" marker-start="none"/><path class="cls-10" d="m129.89,56.15h9.12l-.39,2.73h-6.13l-.37,2.59h5.93l-.43,2.67h-5.93l-.39,2.73h6.54l-.28,2.74h-9.53l1.87-13.46Z" marker-end="none" marker-start="none"/><path class="cls-10" d="m141.81,66.54h2.73l-2.45,5.35h-2.43l2.15-5.35Z" marker-end="none" marker-start="none"/><path class="cls-10" d="m156.45,56.15h4.45c1-.01,1.99.11,2.97.34.87.22,1.68.62,2.39,1.17.69.55,1.2,1.28,1.48,2.11.31,1.02.38,2.1.21,3.16-.11,1.04-.45,2.06-1.01,2.96-.52.81-1.18,1.52-1.96,2.09-.78.57-1.66,1.01-2.59,1.29-.96.29-1.96.44-2.97.44h-4.85l1.88-13.56Zm1.48,10.72h1.57c.65,0,1.3-.07,1.94-.21.58-.12,1.13-.36,1.61-.7.49-.33.9-.76,1.2-1.27.33-.6.56-1.25.65-1.93.09-.58.04-1.17-.13-1.73-.16-.47-.45-.89-.83-1.2-.4-.33-.87-.57-1.36-.72-.57-.16-1.16-.24-1.75-.23h-1.75l-1.16,7.99Z" marker-end="none" marker-start="none"/><path class="cls-10" d="m172.15,56.15h9.15l-.37,2.73h-6.2l-.36,2.59h5.86l-.37,2.74h-5.85l-.39,2.73h6.52l-.37,2.76h-9.5l1.88-13.55Z" marker-end="none" marker-start="none"/><path class="cls-10" d="m185.16,56.15h5.07c.65-.01,1.3.05,1.94.18.54.11,1.04.34,1.48.66.42.32.74.76.92,1.25.21.64.25,1.32.13,1.99-.09.69-.31,1.36-.67,1.97-.31.51-.73.96-1.23,1.29-.51.32-1.07.55-1.66.68-.66.13-1.34.19-2.01.18h-2.18l-.71,5.26h-2.96l1.88-13.46Zm2.16,5.71h2.77c.24-.07.48-.15.7-.27.21-.13.4-.3.55-.5.17-.23.26-.51.28-.79.06-.28.01-.57-.13-.82-.12-.21-.31-.38-.53-.48-.25-.12-.52-.2-.8-.23-.29-.01-.59-.01-.88,0h-1.48l-.47,3.09Z" marker-end="none" marker-start="none"/><path class="cls-10" d="m198.4,56.15h9.1l-.37,2.73h-6.15l-.34,2.59h5.84l-.37,2.74h-5.85l-.39,2.73h6.52l-.37,2.76h-9.5l1.88-13.55Z" marker-end="none" marker-start="none"/><path class="cls-10" d="m211.41,56.15h4.03l4.45,9.34h0l1.3-9.34h2.96l-1.88,13.46h-3.88l-4.45-9.6h0l-1.34,9.58h-2.96l1.76-13.44Z" marker-end="none" marker-start="none"/><path class="cls-10" d="m228.06,56.15h4.45c1-.01,1.99.11,2.96.34.86.22,1.67.62,2.37,1.17.68.55,1.19,1.28,1.48,2.11.58,2.05.3,4.25-.78,6.09-.52.81-1.19,1.52-1.97,2.09-.78.58-1.65,1.01-2.58,1.29-.96.3-1.96.45-2.96.44h-4.85l1.88-13.53Zm1.48,10.72h1.56c.65,0,1.29-.07,1.93-.21.59-.12,1.14-.36,1.63-.7.49-.33.9-.76,1.2-1.27.33-.6.55-1.25.64-1.93.1-.58.06-1.17-.13-1.73-.15-.47-.44-.89-.82-1.2-.41-.33-.88-.57-1.38-.72-.56-.16-1.15-.24-1.74-.23h-1.76l-1.13,7.99Z" marker-end="none" marker-start="none"/><path class="cls-10" d="m248.07,56.15h2.42l3.97,13.46h-3.35l-.77-2.97h-5.22l-1.48,2.97h-3.28l7.71-13.46Zm.59,3.91l-2.22,4.2h3.29l-1.07-4.2Z" marker-end="none" marker-start="none"/><path class="cls-10" d="m258.87,56.15h4.95c.59-.01,1.17.04,1.75.12.52.07,1.02.24,1.48.49.43.24.78.6,1.01,1.03.48,1.26.2,2.69-.73,3.67-.51.5-1.14.88-1.82,1.08h0c.4.06.79.18,1.14.37.33.18.61.42.83.71.22.3.37.64.46.99.08.41.08.82,0,1.22-.06.65-.3,1.27-.7,1.79-.37.46-.82.85-1.33,1.14-.54.3-1.12.51-1.72.62-.59.14-1.2.2-1.81.2h-5.51l2-13.43Zm1.48,10.96h2.65c.24,0,.49-.04.73-.09.48-.1.91-.37,1.2-.76.15-.22.25-.48.28-.74.09-.51-.18-1.02-.67-1.22-.23-.1-.48-.17-.74-.2h-2.96l-.49,3.01Zm.77-5.58h2.15c.23,0,.46-.03.68-.09.23-.04.44-.12.64-.24.2-.11.36-.27.49-.46.14-.2.24-.43.26-.68.07-.24.06-.5-.04-.74-.09-.17-.23-.32-.4-.43-.19-.1-.4-.18-.62-.22-.23-.02-.46-.02-.7,0h-2.02l-.44,2.86Z" marker-end="none" marker-start="none"/><path class="cls-10" d="m272.45,56.15h2.96l-1.48,10.72h5.57l-.39,2.74h-8.45l1.78-13.46Z" marker-end="none" marker-start="none"/><path class="cls-10" d="m283.88,56.15h9.14l-.37,2.73h-6.18l-.42,2.59h5.86l-.39,2.74h-5.84l-.33,2.66h6.52l-.39,2.74h-9.48l1.87-13.46Z" marker-end="none" marker-start="none"/><path class="cls-10" d="m295.72,66.54h2.79l-2.44,5.35h-2.45l2.1-5.35Z" marker-end="none" marker-start="none"/><path class="cls-10" d="m310.48,56.15h9.04l-.39,2.73h-5.93l-.48,2.74h5.6l-.46,2.77h-5.59l-.73,5.31h-2.96l1.88-13.55Z" marker-end="none" marker-start="none"/><path class="cls-10" d="m326.17,56.15h2.45l3.99,13.46h-3.37l-.77-2.97h-5.22l-1.48,2.97h-3.26l7.66-13.46Zm.59,3.91l-2.18,4.2h3.23l-1.05-4.2Z" marker-end="none" marker-start="none"/><path class="cls-10" d="m343.19,59.44c-.22-.32-.54-.57-.9-.7-.37-.12-.75-.19-1.14-.19-.23-.03-.46-.03-.68,0-.23.05-.46.12-.68.22-.21.11-.39.26-.54.43-.16.18-.27.4-.29.64-.05.27.01.54.16.77.18.21.39.37.64.49.3.15.62.27.95.36.36.1.73.2,1.1.34.36.13.72.27,1.07.44.34.18.64.41.9.69.27.29.46.64.56,1.03.1.49.1.99,0,1.48-.12,1.37-.82,2.63-1.93,3.44-.53.38-1.13.65-1.76.82-.66.17-1.34.27-2.03.28-.81,0-1.61-.14-2.37-.42-.73-.27-1.39-.71-1.93-1.28l2.46-2.33c.25.4.6.72,1.01.95.43.22.91.33,1.39.32.24,0,.49-.03.73-.09.25-.04.49-.12.71-.25.21-.1.39-.25.53-.43.16-.18.26-.4.28-.64.08-.35-.04-.72-.33-.96-.33-.25-.7-.45-1.1-.58-.43-.17-.92-.34-1.48-.5-.52-.16-1.02-.39-1.48-.67-1.02-.61-1.52-1.81-1.24-2.96.09-.68.32-1.32.68-1.9.36-.53.82-.99,1.35-1.36.54-.37,1.14-.66,1.78-.83.64-.19,1.29-.28,1.96-.28.73-.01,1.46.1,2.15.32.67.21,1.28.59,1.76,1.1l-2.28,2.25Z" marker-end="none" marker-start="none"/><path class="cls-10" d="m351.27,58.76h-3.84l.37-2.61h10.68l-.36,2.61h-3.9l-1.48,10.85h-2.96l1.48-10.85Z" marker-end="none" marker-start="none"/><path class="cls-10" d="m360.55,67.96c.04-.23.12-.46.24-.66.11-.22.26-.42.44-.58.18-.16.38-.28.61-.36.23-.09.47-.13.71-.13.44-.01.86.17,1.16.5.29.34.42.79.34,1.23-.04.25-.11.48-.22.7-.12.21-.28.4-.47.55-.18.16-.38.29-.59.38-.23.09-.47.13-.71.14-.23,0-.45-.05-.65-.14-.2-.08-.38-.22-.52-.38-.29-.35-.41-.8-.33-1.25Zm3.56-2.8h-2.96l1.28-9.01h2.84l-1.16,9.01Z" marker-end="none" marker-start="none"/></g></svg>